<svg width="69" height="69" viewBox="0 0 69 69" fill="none" xmlns="http://www.w3.org/2000/svg">
<path d="M62.1334 17.3657C61.3622 16.8118 60.4675 16.4556 59.5274 16.328C58.5873 16.2004 57.6304 16.3053 56.74 16.6336L46.6198 20.2999V19.3127C46.6126 16.8981 45.6526 14.5845 43.9495 12.8772C42.2464 11.1698 39.9385 10.2074 37.5299 10.2002H13.2899C10.8813 10.2074 8.57343 11.1698 6.87029 12.8772C5.16715 14.5845 4.20714 16.8981 4.19995 19.3127V49.6877C4.20714 52.1023 5.16715 54.4159 6.87029 56.1232C8.57343 57.8306 10.8813 58.793 13.2899 58.8002H37.5299C39.9385 58.793 42.2464 57.8306 43.9495 56.1232C45.6526 54.4159 46.6126 52.1023 46.6198 49.6877V48.6975L56.74 52.3607C57.6295 52.6931 58.587 52.8005 59.5278 52.6734C60.4685 52.5462 61.3635 52.1884 62.1334 51.6317C62.9642 51.04 63.6404 50.2562 64.1046 49.3467C64.5688 48.4372 64.8073 47.4288 64.7998 46.4072V22.5902C64.8073 21.5685 64.5688 20.5602 64.1046 19.6507C63.6404 18.7412 62.9642 17.9573 62.1334 17.3657ZM31.4699 37.5377H28.4399V40.5752C28.4399 41.3808 28.1207 42.1534 27.5524 42.723C26.9842 43.2927 26.2135 43.6127 25.4099 43.6127C24.6063 43.6127 23.8356 43.2927 23.2674 42.723C22.6991 42.1534 22.3799 41.3808 22.3799 40.5752V37.5377H19.3499C18.5463 37.5377 17.7756 37.2177 17.2074 36.648C16.6391 36.0784 16.3199 35.3058 16.3199 34.5002C16.3199 33.6946 16.6391 32.922 17.2074 32.3524C17.7756 31.7827 18.5463 31.4627 19.3499 31.4627H22.3799V28.4252C22.3799 27.6196 22.6991 26.847 23.2674 26.2774C23.8356 25.7077 24.6063 25.3877 25.4099 25.3877C26.2135 25.3877 26.9842 25.7077 27.5524 26.2774C28.1207 26.847 28.4399 27.6196 28.4399 28.4252V31.4627H31.4699C32.2735 31.4627 33.0442 31.7827 33.6124 32.3524C34.1806 32.922 34.4999 33.6946 34.4999 34.5002C34.4999 35.3058 34.1806 36.0784 33.6124 36.648C33.0442 37.2177 32.2735 37.5377 31.4699 37.5377Z" fill="#212121"/>
</svg>
