<svg width="49" height="49" viewBox="0 0 49 49" fill="none" xmlns="http://www.w3.org/2000/svg">
<path d="M24.4999 4.8999C13.6758 4.8999 4.8999 13.6758 4.8999 24.4999C4.8999 35.324 13.6758 44.0999 24.4999 44.0999C35.324 44.0999 44.0999 35.324 44.0999 24.4999C44.0999 13.6758 35.324 4.8999 24.4999 4.8999ZM26.8094 24.4999C26.8094 24.4999 31.9365 29.6269 32.188 29.8785C32.8266 30.5171 32.8266 31.551 32.188 32.188C31.5494 32.8266 30.5155 32.8266 29.8785 32.188C29.6269 31.9381 24.4999 26.8094 24.4999 26.8094C24.4999 26.8094 19.3729 31.9365 19.1213 32.188C18.4827 32.8266 17.4488 32.8266 16.8118 32.188C16.1732 31.5494 16.1732 30.5155 16.8118 29.8785C17.0617 29.6269 22.1904 24.4999 22.1904 24.4999C22.1904 24.4999 17.0633 19.3729 16.8118 19.1213C16.1732 18.4827 16.1732 17.4488 16.8118 16.8118C17.4504 16.1732 18.4843 16.1732 19.1213 16.8118C19.3729 17.0617 24.4999 22.1904 24.4999 22.1904C24.4999 22.1904 29.6269 17.0633 29.8785 16.8118C30.5171 16.1732 31.551 16.1732 32.188 16.8118C32.8266 17.4504 32.8266 18.4843 32.188 19.1213C31.9381 19.3729 26.8094 24.4999 26.8094 24.4999Z" fill="#F14040"/>
</svg>
