<svg width="71" height="71" viewBox="0 0 71 71" fill="none" xmlns="http://www.w3.org/2000/svg">
<rect width="71" height="71" fill="white"/>
<path d="M31.6406 15.9438C34.0873 15.5113 36.5084 15.5113 38.9551 15.9438C39.1598 15.977 39.3644 15.9937 39.569 15.9937C41.1887 15.9937 42.621 14.8627 42.9193 13.2577C43.2518 11.4532 42.0242 9.72344 40.1657 9.3908C36.9176 8.817 33.6695 8.817 30.43 9.3908C28.58 9.71512 27.3439 11.4448 27.6764 13.2577C28.0088 15.0623 29.7821 16.2681 31.6406 15.9438Z" fill="#4788F4"/>
<path d="M19.4076 18.0769C17.9936 16.8697 15.8853 17.047 14.6889 18.4737C13.6431 19.7231 12.7145 21.0486 11.928 22.4331C11.1416 23.8091 10.4639 25.2865 9.91171 26.823C9.28423 28.5789 10.1878 30.5122 11.928 31.1453C12.3045 31.2804 12.681 31.348 13.0575 31.348C14.4296 31.348 15.718 30.4869 16.2032 29.1108C16.6132 27.9542 17.1235 26.8399 17.7176 25.8099C18.3032 24.78 19.006 23.7838 19.7924 22.8383C20.9888 21.4116 20.8131 19.2842 19.3992 18.0769H19.4076Z" fill="#4788F4"/>
<path d="M19.793 48.8112C19.0072 47.8741 18.305 46.8695 17.7198 45.8395C17.1346 44.8095 16.6246 43.6951 16.2066 42.5385C15.5796 40.7825 13.6652 39.8707 11.9263 40.5039C10.1874 41.137 9.28456 43.0704 9.91156 44.8264C10.455 46.3629 11.1321 47.8403 11.9263 49.2165C12.7121 50.5926 13.6401 51.9265 14.6851 53.176C15.3455 53.9696 16.2902 54.3748 17.2432 54.3748C18.004 54.3748 18.7731 54.1131 19.4001 53.5728C20.8129 52.3655 20.9885 50.238 19.793 48.8112Z" fill="#4788F4"/>
<path d="M58.2533 49.7313C58.346 49.5718 58.4555 49.4123 58.5482 49.2528C58.6493 49.0766 58.7504 48.8919 58.8431 48.7157C58.8768 48.6569 58.9105 48.5982 58.9442 48.5394C59.0874 48.2709 59.2222 48.0023 59.3571 47.7337C59.4329 47.5826 59.5003 47.4399 59.5761 47.2889C59.652 47.121 59.7278 46.9531 59.8121 46.7769C59.9216 46.5419 60.0227 46.2985 60.1238 46.0551C60.1491 45.9879 60.1744 45.9292 60.1996 45.862C61.4635 42.7565 62.1629 39.3741 62.1629 35.8238C62.1629 32.2735 61.4382 28.6141 59.9974 25.2736C59.9806 25.2316 59.9469 25.1981 59.93 25.1561C59.5171 24.2077 59.0622 23.2844 58.5482 22.4031C57.7562 21.0351 56.8125 19.7089 55.7677 18.4668C54.5628 17.0483 52.4395 16.8721 51.0155 18.0723C49.5915 19.2725 49.4146 21.3876 50.6195 22.806C51.4115 23.7377 52.1193 24.7364 52.7091 25.7604C53.3073 26.7844 53.8129 27.8923 54.2342 29.0421C54.2342 29.0589 54.251 29.0673 54.251 29.0841C55.0262 31.2411 55.4222 33.5073 55.4222 35.8322C55.4222 38.1571 55.0009 40.4904 54.2426 42.6055C54.2426 42.6055 54.2426 42.6139 54.2426 42.6223C54.0488 43.1678 53.8213 43.6966 53.5854 44.217C53.5601 44.2673 53.5432 44.3177 53.518 44.368C53.3073 44.8297 53.0714 45.2745 52.8186 45.7025C52.7512 45.8284 52.6754 45.9459 52.608 46.0718C52.3721 46.4663 52.1193 46.8524 51.8581 47.2385C51.7738 47.3644 51.6811 47.4819 51.5969 47.6078C51.3273 47.9855 51.0408 48.3464 50.7459 48.7073C47.7631 52.266 43.5755 54.7923 38.8065 55.6484C38.2167 55.7575 37.6269 55.8331 37.0371 55.8834C37.0118 55.8834 36.9865 55.8834 36.9612 55.8834C35.175 56.0429 33.3887 55.959 31.594 55.64C29.7572 55.3043 28.013 56.5213 27.676 58.351C27.3474 60.1723 28.5607 61.9181 30.3975 62.2538C31.9984 62.5392 33.6162 62.6903 35.2087 62.6903C35.63 62.6903 36.0513 62.6819 36.4726 62.6567C36.7253 62.6483 36.9781 62.6231 37.2309 62.6064C37.3825 62.598 37.5342 62.5896 37.6859 62.5728C38.0061 62.5392 38.3262 62.5056 38.6464 62.4637C38.7307 62.4553 38.8065 62.4469 38.8908 62.4301C39.2278 62.3797 39.5648 62.3294 39.9019 62.2706C39.944 62.2706 39.9777 62.2622 40.0198 62.2538C40.0198 62.2538 40.0367 62.2538 40.0451 62.2538C46.2465 61.1292 51.7233 57.881 55.6666 53.2983C55.7003 53.2648 55.7424 53.2396 55.7761 53.1976C56.7029 52.1149 57.5287 50.9567 58.2533 49.7648C58.2533 49.7648 58.2617 49.748 58.2701 49.7397L58.2533 49.7313Z" fill="#4788F4"/>
</svg>
