<svg width="134" height="134" viewBox="0 0 134 134" fill="none" xmlns="http://www.w3.org/2000/svg">
<path fill-rule="evenodd" clip-rule="evenodd" d="M66.75 133.5C75.5157 133.5 84.1956 131.773 92.2941 128.419C100.393 125.064 107.751 120.148 113.949 113.949C120.148 107.751 125.064 100.393 128.419 92.2941C131.773 84.1956 133.5 75.5157 133.5 66.75C133.5 57.9843 131.773 49.3044 128.419 41.2059C125.064 33.1074 120.148 25.7489 113.949 19.5506C107.751 13.3523 100.393 8.43554 92.2941 5.08104C84.1956 1.72654 75.5157 -1.3062e-07 66.75 0C49.0468 2.63798e-07 32.0687 7.03257 19.5506 19.5506C7.03257 32.0687 0 49.0468 0 66.75C0 84.4532 7.03257 101.431 19.5506 113.949C32.0687 126.467 49.0468 133.5 66.75 133.5ZM65.0293 93.7467L102.113 49.2467L90.7207 39.7533L58.829 78.0159L42.3269 61.5064L31.8398 71.9936L54.0898 94.2436L59.8302 99.9841L65.0293 93.7467Z" fill="#42C04E"/>
</svg>
