<svg width="45" height="45" viewBox="0 0 45 45" fill="none" xmlns="http://www.w3.org/2000/svg">
<path d="M22.5 4.5C12.5595 4.5 4.5 12.5595 4.5 22.5C4.5 32.4405 12.5595 40.5 22.5 40.5C32.4405 40.5 40.5 32.4405 40.5 22.5C40.5 12.5595 32.4405 4.5 22.5 4.5ZM31.5 24H24V31.5C24 32.3295 23.328 33 22.5 33C21.672 33 21 32.3295 21 31.5V24H13.5C12.672 24 12 23.3295 12 22.5C12 21.6705 12.672 21 13.5 21H21V13.5C21 12.6705 21.672 12 22.5 12C23.328 12 24 12.6705 24 13.5V21H31.5C32.328 21 33 21.6705 33 22.5C33 23.3295 32.328 24 31.5 24Z" fill="white"/>
</svg>
