<svg id="Layer_1" data-name="Layer 1" xmlns="http://www.w3.org/2000/svg" viewBox="0 0 40.75 40.75"><title>cancle</title><path d="M20.12,20.9a4.2,4.2,0,0,1-.51-.35q-3.43-3.42-6.84-6.86a1.29,1.29,0,0,1-.4-.79.82.82,0,0,1,1.31-.62,2.77,2.77,0,0,1,.39.36l6.77,6.75.43.4a3.31,3.31,0,0,1,.34-.49l6.79-6.79a.91.91,0,0,1,.92-.36.81.81,0,0,1,.49,1.3,3.28,3.28,0,0,1-.33.35l-6.73,6.73c-.11.11-.25.21-.41.34l.4.42c2.28,2.29,4.57,4.57,6.84,6.87A1.22,1.22,0,0,1,30,29a.82.82,0,0,1-1.42.49c-.37-.34-.71-.7-1.07-1.06l-6-6-.29-.27-.35.33L14,29.31c-.27.27-.56.52-1,.37a.8.8,0,0,1-.41-1.33,3.63,3.63,0,0,1,.3-.32l6.73-6.73C19.72,21.2,19.86,21.11,20.12,20.9Z" transform="translate(-0.75 -0.42)" style="fill:#ccc"/><circle cx="20.37" cy="20.37" r="19.37" style="fill:none;stroke:#ccc;stroke-miterlimit:10;stroke-width:2px"/></svg>