<?xml version="1.0" encoding="utf-8"?>
<!-- Generator: Adobe Illustrator 21.0.0, SVG Export Plug-In . SVG Version: 6.00 Build 0)  -->
<svg version="1.1" id="Layer_1" xmlns="http://www.w3.org/2000/svg" xmlns:xlink="http://www.w3.org/1999/xlink" x="0px" y="0px"
	 viewBox="0 0 38 38" style="enable-background:new 0 0 38 38;" xml:space="preserve">
<style type="text/css">
	.st0{fill:#D3D3D3;}
</style>
<path class="st0" d="M19.5,37.3c-0.3,0-0.7,0-1,0c-0.1,0-0.2,0-0.2-0.1c-1-0.1-2.1-0.2-3.1-0.4c-4.1-0.9-7.6-3-10.3-6.2
	c-2.6-3.1-4-6.8-4.2-10.8c-0.1-2,0.1-4,0.7-6C2.6,10,4.8,6.8,8,4.4c2.8-2.1,6-3.3,9.5-3.6c1.8-0.2,3.6,0,5.4,0.3
	c4.2,0.9,7.6,3,10.3,6.2c2.6,3.1,4,6.8,4.2,10.9c0.1,2-0.1,4-0.7,5.9c-1.6,5.1-4.7,8.9-9.5,11.3c-1.9,1-4,1.6-6.2,1.8
	C20.4,37.2,20,37.3,19.5,37.3z M21.2,30.2c2-0.2,3.9-0.4,5.9-0.7c0.2,0,0.4-0.1,0.5-0.3c1.3-2.3,2.5-4.7,3.8-7
	c0.1-0.1,0.1-0.3,0-0.4c-1-1.7-2-3.4-3-5.1c0-0.1-0.2-0.2-0.3-0.1c-0.8,0.1-1.5,0.2-2.3,0.3c-1.7,0.2-3.5,0.3-5.2,0.5
	c-0.3,0-0.5,0.1-0.7,0.5c-0.9,1.7-1.8,3.4-2.7,5.1c-0.1,0.2-0.1,0.3,0,0.5c1.2,2.1,2.5,4.3,3.7,6.4C20.9,30,21,30.1,21.2,30.2z
	 M20.2,16.3c0.6-0.1,1.2-0.1,1.7-0.2c1-0.1,2.1-0.2,3.1-0.3c1-0.1,2-0.2,2.9-0.3c0.1,0,0.2-0.1,0.2-0.2c0.5-1.4,1-2.8,1.6-4.1
	c0.2-0.4,0.1-0.6-0.2-0.9c-1.7-1.8-3.3-3.7-4.9-5.5c-0.1-0.1-0.3-0.2-0.5-0.2c-1.5,0.1-3,0.1-4.5,0.2c-0.5,0-0.9,0.1-1.4,0.2
	C18.2,4.9,18,5,18,5.1c-0.7,2.1-1.4,4.1-2.1,6.2c0,0.1,0,0.3,0.1,0.4c1.3,1.5,2.7,3,4,4.5C20.1,16.3,20.2,16.3,20.2,16.3z M17.5,34
	c0.1-0.1,0.2-0.2,0.3-0.3c0.7-0.9,1.3-1.8,2-2.8c0.1-0.2,0.1-0.3,0-0.4c-1.2-2.1-2.4-4.1-3.6-6.2c-0.1-0.1-0.3-0.3-0.4-0.3
	c-0.4-0.1-0.8-0.1-1.2-0.2c-1.6-0.3-3.3-0.7-4.9-1c-0.2,0-0.3,0-0.4,0.2c-1,1.5-1.9,3.1-2.9,4.6c-0.1,0.2-0.1,0.3,0,0.5
	c0.8,1.5,1.7,2.9,2.8,4.2c0.1,0.1,0.3,0.2,0.4,0.3c0.3,0.1,0.6,0.1,0.9,0.2c1.5,0.3,3.1,0.6,4.6,0.8C15.9,33.7,16.6,33.8,17.5,34z
	 M17,4.6c-1-0.7-2.1-1.3-3.2-1.7c-0.3-0.1-0.5-0.1-0.7,0c-1.9,0.7-3.7,1.7-5.2,3c-0.6,0.5-1.3,1-1.6,1.7c-0.7,1.2-1.1,2.5-1.7,3.8
	c-0.1,0.2-0.1,0.3,0.2,0.5C6,12.5,7.2,13.3,8.4,14C8.5,14,8.7,14,8.8,14c1.9-1.2,3.8-2.2,5.9-3c0.1,0,0.2-0.2,0.3-0.3
	C15.7,8.7,16.3,6.7,17,4.6z M3.8,12.6c-0.4,0.7-0.8,1.3-1.2,1.9c-0.2,0.2-0.3,0.5-0.4,0.8c-0.2,1.1-0.4,2.3-0.4,3.4
	c-0.1,1.5,0.1,3,0.5,4.4c0.2,0.8,0.3,1.7,1.1,2.2c0.7,0.5,1.3,1,2,1.5c0.1-0.1,0.1-0.2,0.2-0.2c0.9-1.5,1.9-2.9,2.8-4.4
	c0.2-0.4,0.2-0.7,0.2-1.1c-0.2-1.2-0.3-2.5-0.5-3.7C8.1,16.8,8.1,16,8,15.3C8,15.2,8,15,7.9,15C6.6,14.2,5.2,13.4,3.8,12.6z
	 M29.1,32.9c4.2-3.2,6.5-7.3,7-12.6c-1.1,0.9-2.2,1.5-3.4,2c-0.1,0.1-0.3,0.2-0.3,0.3c-1.3,2.4-2.6,4.8-3.9,7.2
	c-0.1,0.1-0.1,0.3,0,0.5C28.7,31.2,28.9,32,29.1,32.9z M34.6,11.9c-1.9-4.1-4.9-7-9.1-8.8c-0.1,0.5-0.1,0.9,0.3,1.3
	C27.4,6.1,29,8,30.6,9.8c0.1,0.1,0.2,0.2,0.3,0.2C32.2,10.5,33.4,11.1,34.6,11.9z M10.6,33.9c2.8,1.7,5.8,2.4,9.1,2.3
	c-0.7-0.3-1.3-0.6-2-0.9c-0.2-0.1-0.4-0.2-0.6-0.2c-1.4-0.3-2.8-0.5-4.2-0.8C12.1,34.1,11.3,34,10.6,33.9z"/>
</svg>
